<svg width="131.95103mm" height="90.893532mm" viewBox="0 0 131.95103 90.893532" xmlns="http://www.w3.org/2000/svg">
    <path d="m 18565,5343.1152 c -36.443,0.2268 -84.17,2.0235 -84.17,2.0235 l 1.809,176.7285 227.638,-7.1563 c 0,0 -0.484,-69.3159 -0.55,-79.5918 -0.07,-10.2757 2.777,-88.7695 2.777,-88.7695 0,0 -87.545,-1.5343 -118.9,-2.9062 -3.92,-0.1715 -8.621,-0.273 -13.848,-0.3204 -4.574,-0.041 -9.55,-0.04 -14.756,-0.01 z m -57.961,9.4434 c 3.318,-0.2042 6.318,0.493 7.244,2.1992 3.539,6.527 -13.137,16.0709 -18.283,10.4629 -3.227,-3.5227 -2.87,-5.3215 1.898,-9.4531 2.19,-1.8979 5.824,-3.0048 9.141,-3.209 z m 36.752,1.9668 c 1.446,-0.1557 2.89,0.3592 4.852,1.4883 5.808,3.3423 4.745,8.7659 -2.553,12.9941 -4.65,2.6958 -5.762,2.6026 -8.83,-0.7402 -4.512,-4.9185 -4.269,-6.5362 1.666,-11.209 1.971,-1.5527 3.419,-2.3775 4.865,-2.5332 z m 43.293,0.5488 c 2.489,0.2015 4.85,1.389 6.443,3.5098 5.205,6.9263 -10.242,19.3128 -16.105,12.918 -2.358,-2.5717 -0.856,-11.1536 2.455,-14.0235 2.102,-1.8215 4.718,-2.6058 7.207,-2.4043 z m 77.754,0.4844 c 0.307,0.025 0.598,0.086 0.871,0.1855 4.953,1.8053 6.643,8.2632 3.113,11.9121 -4.555,4.7131 -13.847,4.204 -15.398,-0.8437 -1.165,-3.7818 5.775,-10.6367 10.451,-11.2266 0.334,-0.042 0.656,-0.053 0.963,-0.027 z m 32.621,1.0039 c 4.356,-0.1555 7.093,1.7494 7.043,4.5684 v 0.08 c -0.04,1.13 -0.519,2.4006 -1.523,3.7461 -3.077,4.1208 -11.155,6.0322 -13.713,3.2442 -3.54,-3.858 -0.586,-10.0475 5.379,-11.2871 0.996,-0.2071 1.938,-0.3206 2.814,-0.3516 z m -70.014,0.029 c 5.248,0.3737 7.413,7.9604 3.055,12.4668 -4.206,4.3482 -11.885,3.8644 -13.328,-0.8398 -1.558,-5.0662 3.074,-10.9179 9.183,-11.6036 0.377,-0.042 0.74,-0.048 1.09,-0.023 z m -104.672,12.4336 c 5.308,0.1668 5.972,1.0465 4.864,6.4726 -1.482,7.2425 -11.266,10.0404 -13.192,3.7715 -1.842,-5.9888 1.785,-10.4488 8.328,-10.2441 z m 119.416,4.0156 c 0.514,0.01 1.031,0.065 1.547,0.1797 5.729,1.2692 6.135,9.1703 0.651,12.6758 -4.798,3.0652 -5.505,3.1501 -9.989,1.1914 -6.879,-3.0057 0.09,-14.171 7.791,-14.0469 z m -80.591,0.4942 c 2.729,-0.278 4.439,1.716 4.099,5.7031 -0.331,3.976 -5.037,9.3626 -8.084,9.2676 -0.881,-0.028 -2.84,-1.6981 -4.351,-3.711 -2.293,-3.0542 -1.873,-4.4169 2.545,-8.2441 2.148,-1.8633 4.153,-2.8489 5.791,-3.0156 z m 41.209,0.291 c 10.608,0.332 13.193,6.3086 5.384,12.455 -5.705,4.4934 -8.841,4.5259 -12.146,0.125 -3.063,-4.0761 1.596,-12.7396 6.762,-12.5781 z m 75.722,2.3711 c 7.381,0.2311 7.69,8.0471 0.45,11.4277 -6.323,2.9516 -7.405,2.7844 -8.672,-1.3398 -1.781,-5.7909 1.886,-10.2862 8.222,-10.0879 z m -176.383,14.0195 c 5.301,0.1653 6.641,7.1288 2.247,11.6758 -4.169,4.3105 -9.521,3.9369 -10.963,-0.7656 -1.562,-5.09 3.22,-11.082 8.716,-10.9102 z m 79.485,0.4336 c 1.436,-0.1284 2.766,-0.01 3.814,0.4238 4.465,1.8439 2.494,11.7375 -2.832,14.2246 -6.161,2.8772 -6.497,2.8311 -10.431,-1.4609 -1.825,-1.9903 -2.55,-5.2043 -1.608,-7.1406 1.484,-3.0498 6.748,-5.6617 11.057,-6.0469 z m 76.924,1.6816 c 1.489,0.034 2.914,0.5209 4.117,1.5996 4.769,4.279 3.778,11.1107 -2.006,13.8106 -6.501,3.0359 -8.759,2.7282 -12.037,-1.6387 -4.18,-5.5669 3.47,-13.9206 9.926,-13.7715 z m 38.883,0.5489 c 5.196,0.1636 6.722,4.5836 3.41,9.8769 -3.033,4.8435 -11.52,4.9339 -12.991,0.1387 -1.379,-4.4873 4.076,-10.1878 9.581,-10.0156 z m -159.586,0.1875 c 2.871,-0.2148 5.694,0.7666 7.392,3.0273 2.308,3.0736 2.003,4.4252 -1.853,8.0996 -5.59,5.3278 -9.474,5.4747 -13.209,0.5 h -0.01 c -2.024,-2.6948 -2.027,-4.7673 0,-7.4726 1.888,-2.5289 4.808,-3.9396 7.68,-4.1543 z m 87.025,0.1972 c 3.899,0.2407 5.826,2.4286 5.488,6.3887 -0.714,8.4427 -11.958,12.337 -16.842,5.834 -3.364,-4.4749 0.05,-10.4065 6.807,-11.8086 1.727,-0.3591 3.247,-0.4941 4.547,-0.4141 z m -69.537,17.3242 c 3.104,0.023 5.158,1.9391 4.869,5.3692 -0.606,7.1412 -7.146,10.5511 -14.266,7.4394 -4.37,-1.909 -2.934,-7.1159 2.957,-10.7246 2.337,-1.4303 4.577,-2.098 6.44,-2.084 z m -36.508,0.2383 c 3.869,-0.2378 7.389,1.5669 7.768,4.9785 1.063,9.5555 -12.665,14.3971 -16.59,5.8516 -1.569,-3.4178 -1.064,-5.3705 2.086,-8.1035 1.969,-1.7062 4.415,-2.5839 6.736,-2.7266 z m 80.844,0.037 c 3.89,0.2437 5.82,2.4344 5.482,6.3907 -0.68,8.0126 -11.201,12.1875 -16.404,6.5117 -3.603,-3.9286 0.1,-11.1862 6.389,-12.4903 1.721,-0.3581 3.236,-0.4931 4.533,-0.4121 z m 76.045,2.6465 c 3.351,0.2266 5.434,2.4869 5.113,6.2832 -0.53,6.2269 -11.807,11.5089 -15.643,7.3262 -2.966,-3.2366 -0.578,-9.9023 4.385,-12.2188 1.663,-0.7766 3.229,-1.2224 4.635,-1.3613 0.527,-0.052 1.031,-0.062 1.51,-0.029 z m -39.295,0.4492 c 5.885,0.1842 7.944,6.0695 3.67,10.4883 -3.904,4.0397 -11.391,4.1324 -12.514,0.1543 -1.325,-4.6999 3.748,-10.802 8.844,-10.6426 z m 57.299,13.6446 c 7.25,0.087 10.711,5.3523 6.918,11.205 -3.138,4.8425 -8.976,5.7865 -14.12,2.2833 -5.215,-3.5534 -1.259,-12.8743 5.702,-13.4356 0.516,-0.042 1.016,-0.059 1.5,-0.053 z m -82.002,2.1328 c 4.478,0.3225 8.72,3.0225 8.412,6.6621 -0.551,6.484 -13.782,11.7315 -17.996,7.1367 -2.529,-2.755 -0.92,-9.3235 2.972,-12.1406 1.349,-0.9763 2.992,-1.4995 4.69,-1.6465 0.637,-0.055 1.282,-0.058 1.922,-0.012 z m -40.684,0.5664 c 5.682,0.1777 8.032,6.3898 4.307,11.3652 -3.927,5.2342 -9.98,5.4977 -12.264,0.5332 -2.571,-5.606 1.762,-12.0922 7.957,-11.8984 z m -33.818,0.6074 v 0 c 1.054,0.078 2.08,0.3697 3.033,0.918 5.301,3.0493 4.945,7.3984 -0.987,12.0664 -4.807,3.7832 -10.687,4.6096 -13.21,1.8574 -5.012,-5.4644 3.776,-15.3854 11.16,-14.8418 z m -35.66,0.2617 c 3.809,0.3028 7.32,2.7444 7.037,6.0664 -0.61,7.2099 -11.243,12.2887 -15.653,7.4786 -2.503,-2.7309 -0.928,-9.3148 2.887,-12.0782 1.204,-0.8707 2.632,-1.3355 4.088,-1.4629 0.546,-0.048 1.096,-0.047 1.641,0 z m 151.853,0.01 c 1.477,0.022 4.05,1.2019 6.147,2.877 3.477,2.7833 3.758,4.2946 1.39,7.5449 -4.011,5.5106 -12.934,6.2855 -14.48,1.2559 -1.255,-4.0852 2.236,-10.4352 6.383,-11.6133 0.161,-0.046 0.349,-0.068 0.56,-0.065 z m -17.457,17.2461 c 6.497,0.2032 7.699,6.451 2.242,11.6504 -4.557,4.3448 -11.205,5.5535 -13.965,2.541 -4.317,-4.705 3.727,-14.4417 11.723,-14.1914 z m -46.496,1.3575 c 0.69,-0.06 1.344,0.016 1.928,0.2597 9.198,3.8301 4.77,15.5284 -5.754,15.1992 -2.957,-0.093 -5.837,-1.6845 -6.406,-3.5371 -1.332,-4.3439 5.399,-11.5033 10.232,-11.9218 z m 90.699,0.2226 c 2.631,0.1956 2.834,1.4103 2.035,4.8692 -0.907,3.898 -3.025,5.4456 -7.992,5.8378 -5.871,0.4638 -6.592,-0.1596 -5.519,-4.7714 0.905,-3.8981 3.02,-5.4457 7.982,-5.8379 1.47,-0.116 2.617,-0.1627 3.494,-0.098 z m -124.324,1.5098 c 3.168,0.2798 5.876,2.5884 5.602,5.8574 -0.58,6.8081 -9.36,11.7401 -13.286,7.4609 -2.452,-2.6748 -0.958,-9.2908 2.69,-11.9336 1.126,-0.8146 2.378,-1.2544 3.615,-1.3769 0.464,-0.046 0.926,-0.048 1.379,-0.01 z m -38.315,0.4687 c 4.001,-0.2944 6.492,3.2 4.522,7.2559 -2.221,4.5594 -7.06,6.2071 -10.85,3.6914 -3.565,-2.3676 -0.803,-8.8193 4.53,-10.5801 0.624,-0.2062 1.227,-0.3252 1.798,-0.3672 z m 179.995,10.2344 c 0.754,0.063 1.449,0.2148 2.054,0.4668 5.008,2.0853 3.767,10.1961 -1.97,12.875 -5.685,2.6543 -5.257,2.6727 -10.2,-0.4219 -2.167,-1.3565 -3.814,-3.9841 -3.654,-5.8398 0.312,-3.6635 8.488,-7.5232 13.77,-7.0801 z m -44.164,3.4844 c 4.271,-0.3656 6.785,2.3334 6.351,7.4511 -0.4,4.6423 -7.223,10.9698 -10.773,9.9786 -0.402,-0.1125 -2.017,-0.7663 -3.586,-1.4532 -4.636,-2.0243 -2.459,-11.9243 3.195,-14.5664 1.77,-0.8264 3.389,-1.2883 4.813,-1.4101 z m -114.141,0.8027 c 0.385,0 0.761,0.027 1.127,0.09 2.629,0.4538 4.967,2.5157 5.195,4.582 0.94,8.4461 -15.831,14.9647 -18.25,7.0937 -1.408,-4.5898 6.158,-11.7243 11.928,-11.7656 z m 71.701,2.207 c 0.434,0 0.88,0.036 1.336,0.1016 7.724,1.1179 7.869,8.1466 0.258,12.5645 -4.527,2.6291 -5.611,2.5705 -7.865,-0.4297 -3.796,-5.0543 -0.711,-11.3639 5.007,-12.1543 0.409,-0.057 0.83,-0.084 1.264,-0.082 z m -35.9,0.9747 c 5.973,0.2819 7.168,4.2565 2.603,10.1269 -5.101,6.5616 -9.63,7.1577 -13.658,1.7969 -3.611,-4.8114 0.67,-10.9806 8.205,-11.8145 1.045,-0.1193 1.996,-0.1493 2.85,-0.1093 z m -68.162,0.2402 c 2.943,0.2141 3.603,1.3296 3.367,4.1387 -0.445,5.1796 -6.895,11.5882 -11.522,11.4433 -1.698,-0.053 -4.35,-1.7754 -5.89,-3.8262 -4.028,-5.3585 1.029,-11.1003 10.289,-11.6992 1.54,-0.1 2.774,-0.1276 3.756,-0.057 z m 172.242,7.4355 c 6.121,0.1915 6.41,7.8558 0.455,12.0625 -5.721,4.0412 -6.639,4.2167 -11.332,2.1661 -7.508,-3.2813 1.092,-14.5348 10.877,-14.2286 z m -45.813,3.1621 c 3.106,0.098 4.299,1.7883 3.971,5.627 -0.655,7.7262 -11.647,11.2297 -13.752,4.3828 -1.399,-4.5538 4.106,-10.1873 9.781,-10.0098 z m -38.291,1.1016 c 5.291,0.1654 7.447,6.708 3.543,10.7461 -3.865,3.9961 -8.245,3.7486 -11.552,-0.6523 -3.264,-4.3465 1.46,-10.2988 8.009,-10.0938 z m -71.845,0.051 c 4.57,0.1422 5.874,6.5553 2.119,10.4394 -4.337,4.483 -11.307,3.9706 -12.817,-0.9433 -1.291,-4.2034 4.878,-9.6782 10.698,-9.4961 z m 32.902,1.0293 c 5.053,0.1587 5.728,1.097 4.627,6.4668 -0.901,4.4041 -2.824,6.4442 -6.442,6.8262 -2.838,0.2997 -5.763,-0.5782 -6.509,-1.9493 -2.649,-4.8877 2.23,-11.5345 8.324,-11.3437 z m 136.984,9.8887 c 0.405,-0.015 0.797,9e-4 1.172,0.045 4.505,0.528 6.767,5.1827 3.434,10.3203 -2.978,4.5987 -10.056,6.1856 -13.045,2.9258 -2.988,-3.26 -0.558,-9.9103 4.482,-12.2637 1.408,-0.6573 2.743,-0.9812 3.957,-1.0273 z m -42.226,0.6191 c 0.367,-0.012 0.737,0 1.105,0.033 1.962,0.1833 3.894,1.0509 5.483,2.7832 2.694,2.9365 2.838,4.7507 0.619,7.7266 -3.842,5.1524 -14.606,6.0253 -16.057,1.3027 -1.947,-6.3457 3.334,-11.6596 8.85,-11.8457 z m -75.869,2.1016 c 0.257,0.024 0.504,0.077 0.738,0.1621 1.432,0.5226 2.35,3.9609 2.041,7.6386 -0.475,5.5909 -1.648,6.7727 -7.135,7.209 -5.222,0.415 -6.485,-0.4156 -6.178,-4.0527 0.399,-4.71 5.866,-10.4862 9.733,-10.9434 0.276,-0.033 0.543,-0.038 0.801,-0.014 z m 37.796,0.7421 c 5.62,0.3046 8.608,6.9979 2.424,12.3575 -4.326,3.7485 -5.45,3.9554 -10.191,1.8847 -3.88,-1.6972 -2.986,-8.8735 1.514,-12.1308 2.215,-1.6038 4.38,-2.2129 6.253,-2.1114 z m -110.537,1.8301 c 3.26,-0.151 6.023,1.7649 7.172,5.502 0.772,2.5218 -0.834,5.3272 -4.553,7.9551 -5.988,4.2305 -6.886,4.4141 -11.597,2.3554 -4.294,-1.8763 -2.821,-8.8195 2.812,-13.2558 2.074,-1.6323 4.21,-2.4657 6.166,-2.5567 z m 35.02,0.6934 c 0.425,0.01 0.856,0.043 1.291,0.1055 7.001,1.0148 9.038,7.2821 4.043,12.4433 -4.162,4.3058 -13.585,3.8366 -14.994,-0.7461 -1.706,-5.5564 2.634,-11.1181 8.404,-11.7461 0.412,-0.045 0.831,-0.064 1.256,-0.057 z" transform="translate(-108.23797,1.9930761) matrix(0.26458333,0,0,0.26458333,-3524.9112,-273.07448) translate(-4730.5688,-4305.3989)" fill="#00378e"/>
    <path d="m 14207.637,1062.5423 -219.892,0.2519 v 16.008 l 223.69,3.4878 z m -217.4,48.4893 -2.492,24.0526 227.411,-2.0926 -1.092,-19.2989 z m 0,47.7563 -2.492,24.0526 224.047,-4.8926 2.272,-16.499 z m 225.651,52.2548 c 0,0 -59.931,0.4635 -74.179,0.1777 -14.249,-0.2858 -163.59,2.6232 -172.521,3.0518 -8.93,0.4288 -116.254,5.7876 -134.194,6.8592 -17.941,1.0716 -80.442,2.6997 -80.442,2.6997 l 0.595,11.5386 c 0,0 28.499,2.679 68.982,2.3575 40.485,-0.3216 135.744,-5.0013 148.126,-5.7515 12.385,-0.75 242.638,-9.2102 242.638,-9.2102 z m 4.635,45.8026 c -154.871,1.2252 -309.668,-2.0288 -464.633,4.8538 l -6.133,14.852 470.235,-1.463 z m -4.961,40.5419 -456.369,12.3718 -8.761,19.0502 462.731,-5.4254 z" fill="#fff" transform="translate(-108.23797,1.9930761) matrix(0.26458333,0,0,0.26458333,-3524.9112,-273.07448)"/>
    <path d="m 14207.637,1039.9172 -219.088,1.0334 -0.804,15.2298 220.98,-0.2681 z m -164.954,42.079 c -18.38,-0.073 -36.7,0.2196 -54.938,1.043 l -1.022,25.0731 226.052,1.3885 -3.836,-21.6175 c -55.452,-2.1788 -111.116,-5.668 -166.256,-5.8871 z m -52.226,57.2023 -2.712,16.3438 229.545,-0.268 -1.131,-15.9952 z m 166.246,44.3007 c -55.824,-0.3006 -117.421,1.5917 -174.167,4.0619 l 4.187,22.2093 224.798,-4.2434 1.768,-20.8264 c -19.17,-0.7262 -37.978,-1.101 -56.586,-1.2014 z m 58.19,42.5732 c 0,0 -99.56,6.526 -117.42,6.026 -17.861,-0.5 -276.598,9.1647 -287.829,9.8078 -11.234,0.6428 -54.933,2.6771 -54.933,2.6771 l 1.179,13.8089 c 0,0 116.383,-7.4878 173.379,-6.5233 56.996,0.9644 286.206,-1.8732 286.206,-1.8732 z m 4.834,51.5992 -462.726,2.9969 -0.653,23.6005 466.774,-7.4987 z m -5.912,48.1859 -460.425,7.3889 -2.958,19.2083 462.731,-5.4253 z" fill="#b90a2f" transform="translate(-108.23797,1.9930761) matrix(0.26458333,0,0,0.26458333,-3524.9112,-273.07448)"/>
    <path d="m 13753.664,1365.7293 c -11.324,-2.169 -13.849,-3.991 -13.831,-11.2742 0.07,-24.9883 -2.806,-91.1665 -4.838,-134.5879 -1.362,-29.1231 -2.496,-60.7098 -2.516,-70.1931 -0.02,-9.4832 -0.357,-33.269 -0.753,-52.8576 -0.768,-38.262 1.631,-58.5286 7.922,-63.7687 10.822,-9.013 21.649,-7.1312 81.927,-7.5882 157.517,-1.194 332.795,-1.1647 366.147,-0.1207 41.791,1.3079 36.546,3.3861 37.688,27.3839 -1.306,15.1012 1.753,30.9154 2.029,44.6997 0.685,35.7432 2.231,60.593 2.685,74.2899 0.754,21.1943 -1.058,112.3854 -2.678,134.9718 -2.065,28.7185 3.146,54.431 -1.923,56.7364 -4.656,2.1162 -65.085,0.3017 -106.216,2.3156 -15.716,0.7695 -73.065,1.9154 -125.853,1.5027 -52.793,-0.4126 -113.689,-0.1158 -133.956,0.471 -41.503,1.2009 -98.935,-0.7958 -98.935,-0.7958 z m 116.593,-16.8913 c 20.925,-0.6694 75.462,-1.0014 121.188,-0.738 83.083,0.4787 136.488,-0.6113 179.186,-3.6569 37.884,-2.7016 38.182,-2.7747 38.744,-9.4182 l 0.498,-5.861 -45.66,0.1157 c -25.114,0.061 -66.545,0.9716 -92.069,2.019 -41.563,1.7059 -146.051,2.9275 -271.004,3.1681 l -44.258,0.086 -1.518,6.39 c -1.209,5.0975 -0.539,6.5585 3.324,7.222 8.842,1.5207 72.991,1.9089 111.569,0.6751 z m -22.906,-23.4926 c 46.39,-1.0258 113.717,-2.1111 149.614,-2.4114 35.896,-0.3004 79.178,-1.0238 96.184,-1.6075 17.004,-0.584 50.214,-0.5059 73.797,0.1726 l 42.879,1.2333 0.608,-21.245 c 0.333,-11.6847 0.386,-21.5401 0.1,-21.9007 -0.27,-0.3603 -17.535,0.367 -38.365,1.6164 -47.982,2.8778 -138.183,3.2715 -291.256,1.2716 -66.287,-0.866 -120.955,-1.1992 -121.485,-0.7404 -0.529,0.4587 -0.698,5.5515 -0.374,11.3171 0.59,10.4661 0.603,10.4818 9.249,9.8692 4.766,-0.3371 28.97,-1.019 53.797,-1.5144 24.823,-0.4958 61.717,-1.3746 81.985,-1.9532 20.263,-0.5789 65.678,-1.2716 100.921,-1.54 35.239,-0.2682 88.018,-1.7593 117.281,-3.3134 58.739,-3.1193 78.342,-3.0428 83.299,0.325 1.813,1.2331 2.76,2.6668 2.102,3.1863 -0.66,0.5194 -22.626,1.9585 -48.82,3.198 -26.19,1.2391 -59.641,2.9109 -74.327,3.7149 -14.688,0.8038 -62.273,1.8927 -105.74,2.4199 -43.469,0.5271 -95.616,1.451 -115.889,2.0532 -20.266,0.6022 -52.039,0.9076 -70.599,0.6786 l -33.752,-0.4163 -0.749,8.5972 c -0.453,5.3352 0.385,8.6461 2.219,8.7255 1.622,0.073 40.906,-0.7112 87.301,-1.7373 z m -50.117,-52.1826 c 16.371,-0.7592 82.539,-0.7911 147.042,-0.071 64.507,0.7204 142.914,1.0703 174.244,0.7771 31.333,-0.2931 65.185,-0.2652 75.232,0.061 l 18.272,0.5961 -0.833,-7.4974 c -0.457,-4.1234 -1.209,-7.9789 -1.672,-8.568 -0.465,-0.5888 -26.769,-0.068 -58.458,1.1599 -31.682,1.227 -111.447,1.5797 -177.248,0.7842 -108.832,-1.3158 -211.875,0.046 -215.104,2.8443 -0.699,0.6076 -0.799,3.8598 -0.21,7.2267 0.734,4.2682 2.254,5.8104 5.018,5.0946 2.176,-0.565 17.357,-1.6486 33.724,-2.4081 z m -2.972,-20.8556 c 26.863,-2.1235 113.664,-3.0695 219.221,-2.3892 85.789,0.5529 196.504,-0.5133 198.181,-1.9085 0.492,-0.4082 0.527,-4.7673 0.08,-9.6865 l -0.795,-8.944 -15.981,1.2452 c -8.789,0.6852 -42.201,2.0817 -74.241,3.1035 -32.043,1.0218 -66.856,2.54 -77.36,3.374 -10.508,0.8337 -50.639,2.1537 -89.184,2.9333 -38.545,0.7792 -87.173,2.3943 -108.063,3.5886 -20.891,1.1943 -49.488,1.8112 -63.555,1.3712 -14.065,-0.4403 -25.657,0.1455 -25.754,1.3047 -0.582,6.8544 2.405,9.5195 9.629,8.5848 4.131,-0.5353 16.644,-1.695 27.806,-2.5771 z m 61.84,-18.6494 c 31.546,-1.4561 73.38,-2.7904 92.961,-2.9655 34.894,-0.3118 116.717,-3.3577 135.607,-5.048 5.257,-0.4704 29.332,-1.2292 53.503,-1.686 65.066,-1.2297 73.692,-2.0718 74.134,-7.2344 0.324,-3.9203 -1.255,-4.2229 -19.253,-3.6734 -10.79,0.3292 -60.194,0.8761 -109.789,1.2154 -49.594,0.3395 -97.708,1.375 -106.919,2.3015 -9.206,0.9262 -32.27,2.3176 -51.245,3.0916 -18.985,0.7741 -45.239,2.0976 -58.356,2.9413 -13.115,0.8438 -42.864,1.7978 -66.108,2.1199 -23.241,0.3224 -42.808,1.0599 -43.476,1.6387 -0.668,0.5789 -0.686,2.7689 -0.03,4.8663 1.604,5.2201 25.738,5.8132 98.982,2.4326 z m -47.778,-21.2803 c 10.468,-0.3958 36.72,-1.6306 58.334,-2.7442 21.617,-1.1136 71.437,-0.8667 90.862,-1.1263 23.436,-1.1406 18.652,0.8173 18.97,-18.1503 -0.415,-59.5579 0.684,-104.3392 1.961,-124.0324 0.926,-14.3002 2.606,-23.0367 -2.31,-23.081 l -75.716,-0.6811 c -43.977,-0.3957 -95.127,-2.8119 -113.662,-2.0359 -20.981,0.8783 -35.268,-1.6878 -34.567,9.0966 -0.473,5.5832 -0.433,17.7396 0.08,27.0138 0.797,14.258 1.794,55.6259 2.974,123.4835 -0.07,19.3463 -1.584,14.7015 17.152,13.7927 12.089,-0.548 24.349,-1.0991 35.922,-1.5354 z m 266.265,-7.6801 c 33.98,-0.7588 78.547,-0.8828 99.039,-0.2758 l 37.258,1.104 0.882,-10.413 0.886,-10.4129 -17.26,0.7631 c -20.678,0.914 -102.666,2.0374 -162.64,2.228 l -43.294,0.1372 -0.87,10.2742 -0.873,10.2741 12.546,-1.1498 c 6.902,-0.6326 40.348,-1.7707 74.326,-2.5295 z m -0.02,-27.6535 c 31.374,-0.8314 74.942,-0.9683 96.816,-0.3037 l 39.77,1.2083 -0.1,-7.4746 c -0.07,-4.8135 -1.371,-7.5 -3.659,-7.5462 -31.359,-0.6351 -164.943,-1.3303 -186.676,-0.972 l -29.096,0.4798 -0.78,9.2107 -0.784,9.2107 13.738,-1.1504 c 7.552,-0.6328 39.405,-1.8308 70.781,-2.6621 z m -42.919,-25.2447 c 14.415,-0.7821 60.596,-1.061 102.625,-0.6199 74.316,0.7801 76.426,0.6761 76.804,-3.7884 0.415,-4.9489 11.956,-4.5448 -205.122,-7.1826 l -14.81,-0.1799 c -1.577,-0.7045 -0.438,5.1269 -0.651,7.7066 -0.614,7.4448 -0.399,7.6685 7.146,6.5963 4.292,-0.6103 19.597,-1.7499 34.008,-2.5321 z m 4.175,-21.2186 c 17.325,-1.0815 62.591,-0.939 102.653,0.3231 l 71.657,2.2598 -0.02,-8.0824 v -8.0814 l -14.791,-0.3869 c -8.136,-0.2133 -57.384,-1.4953 -109.443,-2.8508 l -94.652,-2.4639 c -2.186,-0.2821 -1.119,7.3229 -1.397,10.6432 -0.984,11.7979 0.76,12.8702 8.882,11.5628 3.37,-0.5425 20.075,-1.8568 37.124,-2.9207 z m 74.647,-26.1923 98.358,1.8054 -0.267,-7.501 -0.263,-7.5011 -29.817,-2.4172 c -38.547,-3.1253 -121.593,-5.7245 -158.472,-4.9601 l -28.885,0.599 c -2.128,0.045 -1.626,6.7021 -1.652,10.1404 l -0.08,10.2511 11.359,-1.1109 c 6.247,-0.6111 55.621,-0.2986 109.717,0.6944 z m -86.998,-28.836 c 10.284,-0.9583 55.896,-0.578 101.36,0.8448 l 82.656,2.5868 -1.027,-6.3537 c -0.561,-3.4946 -1.126,-6.4923 -1.257,-6.6615 -0.116,-0.1703 -29.575,-0.3766 -65.439,-0.4611 -35.861,-0.084 -84.102,-0.683 -107.196,-1.3305 l -41.999,-1.1765 -0.688,8.1286 c -0.67,7.8925 -0.471,8.0999 7.098,7.147 4.288,-0.5395 16.207,-1.7651 26.492,-2.7232 z m 97.682,-21.2708 c 73.992,0.7806 83.552,0.4656 83.797,-2.7606 0.764,-10.2479 -0.484,-10.4645 -52.967,-9.1803 -27.217,0.6657 -74.388,1.1077 -104.827,0.982 -56.505,-0.2336 -59.985,0.2961 -57.401,8.7324 0.675,2.1961 6.602,2.7123 24.385,2.1236 12.919,-0.428 61.075,-0.3816 107.013,0.1026 z" fill="#030303" transform="translate(-108.23797,1.9930761) matrix(0.26458333,0,0,0.26458333,-3524.9112,-273.07448)"/>
    <path d="m 13776.47,1047.1597 c -3.317,0.2042 -6.951,1.3111 -9.141,3.209 -4.768,4.1316 -5.125,5.9304 -1.898,9.4531 5.146,5.608 21.822,-3.9359 18.283,-10.4629 -0.926,-1.7062 -3.926,-2.4034 -7.244,-2.1992 z m 36.752,1.9668 c -1.446,0.1557 -2.894,0.9805 -4.865,2.5332 -5.935,4.6728 -6.178,6.2905 -1.666,11.209 3.068,3.3428 4.18,3.436 8.83,0.7402 7.298,-4.2282 8.361,-9.6518 2.553,-12.9941 -1.962,-1.1291 -3.406,-1.644 -4.852,-1.4883 z m 43.293,0.5488 c -2.489,-0.2015 -5.105,0.5828 -7.207,2.4043 -3.311,2.8699 -4.813,11.4518 -2.455,14.0235 5.863,6.3948 21.31,-5.9917 16.105,-12.918 -1.593,-2.1208 -3.954,-3.3083 -6.443,-3.5098 z m 76.791,0.5117 c -4.676,0.5899 -11.616,7.4448 -10.451,11.2266 1.551,5.0477 10.843,5.5567 15.398,0.8437 3.53,-3.649 1.84,-10.1068 -3.113,-11.9121 -0.545,-0.1986 -1.166,-0.2424 -1.834,-0.1582 z m 33.584,0.9766 c -0.876,0.031 -1.818,0.1445 -2.814,0.3516 -5.965,1.2396 -8.919,7.4291 -5.379,11.2871 2.558,2.788 10.636,0.8766 13.713,-3.2442 1.004,-1.3455 1.483,-2.6161 1.523,-3.7461 v -0.08 c 0.05,-2.819 -2.687,-4.7239 -7.043,-4.5684 z m -71.104,0.053 c -6.109,0.6857 -10.741,6.5374 -9.183,11.6036 1.443,4.7043 9.122,5.188 13.328,0.8398 4.648,-4.8068 1.875,-13.1196 -4.145,-12.4434 z m -103.582,12.4102 c -6.543,-0.2047 -10.17,4.2553 -8.328,10.2441 1.926,6.2689 11.71,3.471 13.192,-3.7715 1.108,-5.4261 0.444,-6.3058 -4.864,-6.4726 z m 119.416,4.0156 c -7.705,-0.1241 -14.67,11.0412 -7.791,14.0469 4.484,1.9587 5.191,1.8738 9.989,-1.1914 5.484,-3.5055 5.078,-11.4066 -0.651,-12.6758 -0.516,-0.1144 -1.033,-0.1714 -1.547,-0.1797 z m -80.591,0.4942 c -1.638,0.1667 -3.643,1.1523 -5.791,3.0156 -4.418,3.8272 -4.838,5.1899 -2.545,8.2441 1.511,2.0129 3.47,3.6829 4.351,3.711 3.047,0.095 7.753,-5.2916 8.084,-9.2676 0.34,-3.9871 -1.37,-5.9811 -4.099,-5.7031 z m 41.209,0.2929 c -5.166,-0.1615 -9.825,8.5019 -6.762,12.5781 v 0 c 3.305,4.4008 6.441,4.3683 12.146,-0.125 7.809,-6.1465 5.224,-12.1231 -5.384,-12.4551 z m 75.722,2.3692 c -6.336,-0.1983 -10.003,4.297 -8.222,10.0879 1.267,4.1242 2.349,4.2914 8.672,1.3398 7.24,-3.3806 6.931,-11.1966 -0.45,-11.4277 z m -176.383,14.0195 c -5.496,-0.1718 -10.278,5.8202 -8.716,10.9102 1.442,4.7025 6.794,5.0761 10.963,0.7656 4.394,-4.547 3.054,-11.5105 -2.247,-11.6758 z m 79.485,0.4336 c -4.309,0.3852 -9.573,2.9971 -11.057,6.0469 -0.942,1.9363 -0.217,5.1503 1.608,7.1406 3.934,4.292 4.27,4.3381 10.431,1.4609 5.326,-2.4871 7.297,-12.3807 2.832,-14.2246 -1.048,-0.4329 -2.378,-0.5522 -3.814,-0.4238 z m 76.924,1.6816 c -6.456,-0.1491 -14.106,8.2046 -9.926,13.7715 3.278,4.3669 5.536,4.6746 12.037,1.6387 5.784,-2.6999 6.775,-9.5316 2.006,-13.8106 -1.203,-1.0787 -2.628,-1.5652 -4.117,-1.5996 z m 38.883,0.5489 c -5.505,-0.1722 -10.96,5.5283 -9.581,10.0156 1.471,4.7952 9.958,4.7048 12.991,-0.1387 3.312,-5.2933 1.787,-9.7133 -3.41,-9.8769 z m -159.586,0.1875 c -2.872,0.2147 -5.792,1.6254 -7.68,4.1543 -2.027,2.7053 -2.024,4.7778 0,7.4726 h 0.01 c 3.735,4.9747 7.619,4.8278 13.209,-0.5 3.856,-3.6744 4.161,-5.026 1.853,-8.0996 -1.698,-2.2607 -4.521,-3.2421 -7.392,-3.0273 z m 87.025,0.1972 c -1.3,-0.08 -2.82,0.055 -4.547,0.4141 -6.758,1.4021 -10.171,7.3337 -6.807,11.8086 4.884,6.503 16.128,2.6087 16.842,-5.834 0.338,-3.9601 -1.589,-6.148 -5.488,-6.3887 z m -69.537,17.3242 c -1.863,-0.014 -4.103,0.6537 -6.44,2.084 -5.891,3.6087 -7.327,8.8156 -2.957,10.7246 7.12,3.1117 13.66,-0.2982 14.266,-7.4394 0.289,-3.4301 -1.765,-5.3461 -4.869,-5.3692 z m -36.508,0.2383 c -2.321,0.1427 -4.767,1.0204 -6.736,2.7266 -3.15,2.733 -3.655,4.6857 -2.086,8.1035 3.925,8.5455 17.653,3.7039 16.59,-5.8516 -0.379,-3.4116 -3.899,-5.2163 -7.768,-4.9785 z m 80.844,0.037 c -1.297,-0.081 -2.812,0.054 -4.533,0.4121 -6.289,1.3041 -9.992,8.5617 -6.389,12.4903 5.203,5.6758 15.724,1.5009 16.404,-6.5117 0.338,-3.9563 -1.592,-6.147 -5.482,-6.3907 z m 74.535,2.6758 c -1.406,0.1389 -2.972,0.5847 -4.635,1.3613 -4.963,2.3165 -7.351,8.9822 -4.385,12.2188 3.836,4.1827 15.113,-1.0993 15.643,-7.3262 0.367,-4.3387 -2.406,-6.6704 -6.623,-6.2539 z m -37.785,0.4199 c -5.096,-0.1594 -10.169,5.9427 -8.844,10.6426 1.123,3.9781 8.61,3.8854 12.514,-0.1543 4.274,-4.4188 2.215,-10.3041 -3.67,-10.4883 z m 55.799,13.6973 c -6.961,0.5613 -10.917,9.8823 -5.702,13.4356 5.144,3.5033 10.982,2.5592 14.12,-2.2833 4.046,-6.2429 -0.162,-11.8178 -8.418,-11.1523 z m -82.424,2.0918 c -1.698,0.147 -3.341,0.6702 -4.69,1.6465 -3.892,2.8171 -5.501,9.3856 -2.972,12.1406 4.214,4.5948 17.445,-0.6527 17.996,-7.1367 0.352,-4.1595 -5.24,-7.0915 -10.334,-6.6504 z m -38.762,0.5547 c -6.195,-0.1938 -10.528,6.2924 -7.957,11.8984 2.284,4.9645 8.337,4.701 12.264,-0.5332 3.725,-4.9754 1.375,-11.1875 -4.307,-11.3652 z m -33.818,0.6074 c -7.384,-0.5436 -16.172,9.3774 -11.16,14.8418 v 0 c 2.523,2.7522 8.404,1.9258 13.211,-1.8574 5.932,-4.668 6.287,-9.0171 0.986,-12.0664 -0.953,-0.5483 -1.979,-0.8403 -3.033,-0.918 z m -37.301,0.2656 c -1.456,0.1274 -2.884,0.5922 -4.088,1.4629 -3.815,2.7634 -5.39,9.3473 -2.887,12.0782 4.41,4.8102 15.043,-0.2687 15.653,-7.4786 0.324,-3.7966 -4.309,-6.4447 -8.678,-6.0625 z m 152.934,0.068 c -4.147,1.1781 -7.638,7.5281 -6.383,11.6133 1.546,5.0296 10.469,4.2547 14.48,-1.2559 2.368,-3.2503 2.087,-4.7616 -1.39,-7.5449 -2.396,-1.9144 -5.414,-3.1804 -6.707,-2.8125 z m -16.897,17.1816 c -7.996,-0.2503 -16.04,9.4864 -11.723,14.1914 2.76,3.0125 9.408,1.8038 13.965,-2.541 5.457,-5.1994 4.255,-11.4472 -2.242,-11.6504 z m -46.496,1.3575 c -4.833,0.4185 -11.564,7.5779 -10.232,11.9218 0.569,1.8526 3.449,3.4445 6.406,3.5371 10.524,0.3292 14.952,-11.3691 5.754,-15.1992 -0.584,-0.2432 -1.238,-0.3195 -1.928,-0.2597 z m 90.699,0.2226 c -0.877,-0.065 -2.024,-0.018 -3.494,0.098 -4.962,0.3922 -7.077,1.9398 -7.982,5.8379 -1.073,4.6118 -0.352,5.2352 5.519,4.7714 4.967,-0.3922 7.085,-1.9398 7.992,-5.8378 0.799,-3.4589 0.596,-4.6736 -2.035,-4.8692 z m -125.703,1.5176 c -1.237,0.1225 -2.489,0.5623 -3.615,1.3769 -3.648,2.6428 -5.142,9.2588 -2.69,11.9336 3.926,4.2792 12.706,-0.6528 13.286,-7.4609 0.314,-3.736 -3.269,-6.2171 -6.981,-5.8496 z m -36.936,0.4609 c -0.571,0.042 -1.174,0.161 -1.798,0.3672 -5.333,1.7608 -8.095,8.2125 -4.53,10.5801 3.79,2.5157 8.629,0.868 10.85,-3.6914 1.97,-4.0559 -0.521,-7.5503 -4.522,-7.2559 z m 179.995,10.2344 c -5.282,-0.4431 -13.458,3.4166 -13.77,7.0801 -0.16,1.8557 1.487,4.4833 3.654,5.8398 4.943,3.0946 4.515,3.0762 10.2,0.4219 5.737,-2.6789 6.978,-10.7897 1.97,-12.875 -0.605,-0.252 -1.3,-0.4035 -2.054,-0.4668 z m -44.164,3.4844 c -1.424,0.1218 -3.043,0.5837 -4.813,1.4101 -5.654,2.6421 -7.831,12.5421 -3.195,14.5664 1.569,0.6869 3.184,1.3407 3.586,1.4532 3.55,0.9912 10.373,-5.3363 10.773,-9.9786 0.434,-5.1177 -2.08,-7.8167 -6.351,-7.4511 z m -113.014,0.8926 c -5.848,-1.0103 -14.557,6.7799 -13.055,11.6757 2.419,7.871 19.19,1.3524 18.25,-7.0937 -0.228,-2.0663 -2.566,-4.1282 -5.195,-4.582 z m 69.31,2.1992 c -5.718,0.7904 -8.803,7.1 -5.007,12.1543 2.254,3.0002 3.338,3.0588 7.865,0.4297 7.611,-4.4179 7.466,-11.4466 -0.258,-12.5645 -0.912,-0.1321 -1.783,-0.1324 -2.6,-0.019 z m -34.636,0.8926 c -0.854,-0.04 -1.805,-0.01 -2.85,0.1093 -7.535,0.8339 -11.816,7.0031 -8.205,11.8145 4.028,5.3608 8.557,4.7647 13.658,-1.7969 4.565,-5.8704 3.37,-9.845 -2.603,-10.1269 z m -68.162,0.2402 c -0.982,-0.071 -2.216,-0.043 -3.756,0.057 -9.26,0.5989 -14.317,6.3407 -10.289,11.6992 1.54,2.0508 4.192,3.7733 5.89,3.8262 4.627,0.1449 11.077,-6.2637 11.522,-11.4433 0.236,-2.8091 -0.424,-3.9246 -3.367,-4.1387 z m 172.242,7.4355 c -9.785,-0.3062 -18.385,10.9473 -10.877,14.2286 4.693,2.0506 5.611,1.8751 11.332,-2.1661 5.955,-4.2067 5.666,-11.871 -0.455,-12.0625 z m -45.813,3.1621 c -5.675,-0.1775 -11.18,5.456 -9.781,10.0098 2.105,6.8469 13.097,3.3434 13.752,-4.3828 0.328,-3.8387 -0.865,-5.5294 -3.971,-5.627 z m -38.291,1.1016 c -6.549,-0.205 -11.273,5.7473 -8.009,10.0938 3.307,4.4009 7.687,4.6484 11.552,0.6523 3.904,-4.0381 1.748,-10.5807 -3.543,-10.7461 z m -71.845,0.051 c -5.82,-0.1821 -11.989,5.2927 -10.698,9.4961 1.51,4.9139 8.48,5.4263 12.817,0.9433 3.755,-3.8841 2.451,-10.2972 -2.119,-10.4394 z m 32.902,1.0293 c -6.094,-0.1908 -10.973,6.456 -8.324,11.3437 0.746,1.3711 3.671,2.249 6.509,1.9493 3.618,-0.382 5.541,-2.4221 6.442,-6.8262 1.101,-5.3698 0.426,-6.3081 -4.627,-6.4668 z m 138.156,9.9336 c -1.502,-0.176 -3.252,0.106 -5.129,0.9824 -5.04,2.3534 -7.47,9.0037 -4.482,12.2637 2.989,3.2598 10.067,1.6729 13.045,-2.9258 3.333,-5.1376 1.071,-9.7923 -3.434,-10.3203 z m -42.293,0.6074 c -5.884,-0.55 -12.032,5.0437 -9.955,11.8125 1.451,4.7226 12.215,3.8497 16.057,-1.3027 2.219,-2.9759 2.075,-4.7901 -0.619,-7.7266 -1.589,-1.7323 -3.521,-2.5999 -5.483,-2.7832 z m -77.775,2.082 c -3.867,0.4572 -9.334,6.2334 -9.733,10.9434 -0.307,3.6371 0.956,4.4677 6.178,4.0527 5.487,-0.4363 6.66,-1.6181 7.135,-7.209 0.309,-3.6777 -0.609,-7.116 -2.041,-7.6386 -0.468,-0.1704 -0.987,-0.2138 -1.539,-0.1485 z m 38.597,0.7285 c -1.873,-0.1015 -4.038,0.5076 -6.253,2.1114 -4.5,3.2573 -5.394,10.4336 -1.514,12.1308 4.741,2.0707 5.865,1.8638 10.191,-1.8847 6.184,-5.3596 3.196,-12.0529 -2.424,-12.3575 z m -110.537,1.8301 c -1.956,0.091 -4.092,0.9244 -6.166,2.5567 -5.633,4.4363 -7.106,11.3795 -2.812,13.2558 4.711,2.0587 5.608,1.8751 11.597,-2.3554 3.718,-2.6279 5.325,-5.4333 4.553,-7.9551 -1.149,-3.7371 -3.912,-5.653 -7.172,-5.502 z m 33.764,0.75 c -5.77,0.628 -10.11,6.1897 -8.404,11.7461 1.409,4.5827 10.832,5.0519 14.994,0.7461 4.995,-5.1612 2.958,-11.4285 -4.043,-12.4433 -0.869,-0.126 -1.723,-0.1386 -2.547,-0.049 z" fill="#fff" transform="translate(-108.23797,1.9930761) matrix(0.26458333,0,0,0.26458333,-3524.9112,-273.07448)"/>
</svg>
